<?xml version="1.0" encoding="UTF-8" standalone="no"?>
<!DOCTYPE svg PUBLIC "-//W3C//DTD SVG 1.1//EN" "http://www.w3.org/Graphics/SVG/1.1/DTD/svg11.dtd">
<svg width="100%" height="100%" viewBox="0 0 155 179" version="1.1" xmlns="http://www.w3.org/2000/svg" xmlns:xlink="http://www.w3.org/1999/xlink" xml:space="preserve" xmlns:serif="http://www.serif.com/" style="fill-rule:evenodd;clip-rule:evenodd;stroke-linejoin:round;stroke-miterlimit:2;">
    <g transform="matrix(1,0,0,1,-178.639336,-160.0625)">
        <path d="M214.75,249.493C214.707,246.938 214.824,244.918 208.75,236L194.565,213C185.794,198.069 192.275,186.911 208.481,188.864L235,192C241.899,193.004 245.682,191.957 246.48,182.729C247.04,176.253 250.8,172.075 256,172.062C261.2,172.075 264.96,176.253 265.52,182.729C266.318,191.957 270.101,193.004 277,192L303.519,188.864C319.725,186.911 326.206,198.069 317.435,213L303.25,236C297.176,244.918 297.293,246.938 297.25,249.493C297.293,252.047 297.176,254.067 303.25,262.985L317.435,285.985C326.206,300.916 319.725,312.075 303.519,310.121L277,306.985C270.101,305.981 266.318,307.028 265.52,316.256C264.96,322.732 261.2,326.91 256,326.923C250.8,326.91 247.04,322.732 246.48,316.256C245.682,307.028 241.899,305.981 235,306.985L208.481,310.121C192.275,312.075 185.794,300.916 194.565,285.985L208.75,262.985C214.824,254.067 214.707,252.047 214.75,249.493Z" style="fill:white;"/>
        <path d="M234.731,179.885C236.54,167.216 245.385,160.089 255.97,160.063L256.03,160.063C266.615,160.089 275.46,167.216 277.269,179.885L302.105,176.948C316.359,175.236 325.746,180.832 330.233,188.596C334.435,195.866 335.009,206.775 327.782,219.078L327.649,219.299L313.464,242.299C313.369,242.453 313.27,242.605 313.168,242.755C310.055,247.326 309.34,248.229 309.257,249.497C309.34,250.757 310.056,251.66 313.168,256.23C313.27,256.38 313.369,256.532 313.464,256.686L327.649,279.686L327.782,279.907C335.009,292.21 334.435,303.119 330.233,310.389C325.746,318.153 316.359,323.749 302.105,322.038L277.269,319.101C275.46,331.769 266.615,338.897 256.03,338.923L255.97,338.923C245.385,338.897 236.54,331.769 234.731,319.101L209.895,322.038C195.641,323.749 186.254,318.153 181.767,310.389C177.565,303.119 176.991,292.21 184.218,279.907L184.351,279.686L198.536,256.686C198.631,256.532 198.73,256.38 198.832,256.23C201.945,251.659 202.66,250.756 202.743,249.496L202.743,249.488C202.66,248.228 201.944,247.325 198.832,242.755C198.73,242.605 198.631,242.453 198.536,242.299L184.351,219.299L184.218,219.078C176.991,206.775 177.565,195.866 181.767,188.596C186.254,180.832 195.641,175.236 209.895,176.948L234.731,179.885ZM214.75,249.493C214.707,252.047 214.824,254.067 208.75,262.985L194.565,285.985C185.794,300.916 192.275,312.075 208.481,310.121L235,306.985C241.899,305.981 245.682,307.028 246.48,316.256C247.04,322.732 250.8,326.91 256,326.923C261.2,326.91 264.96,322.732 265.52,316.256C266.318,307.028 270.101,305.981 277,306.985L303.519,310.121C319.725,312.075 326.206,300.916 317.435,285.985L303.25,262.985C297.176,254.067 297.293,252.047 297.25,249.493C297.293,246.938 297.176,244.918 303.25,236L317.435,213C326.206,198.069 319.725,186.911 303.519,188.864L277,192C270.101,193.004 266.318,191.957 265.52,182.729C264.96,176.253 261.2,172.075 256,172.062C250.8,172.075 247.04,176.253 246.48,182.729C245.682,191.957 241.899,193.004 235,192L208.481,188.864C192.275,186.911 185.794,198.069 194.565,213L208.75,236C214.824,244.918 214.707,246.938 214.75,249.493Z" style="fill:rgb(51,13,107);"/>
        <g transform="matrix(1,0,0,1,-0,-2.521689)">
            <path d="M285,213C289.676,212.998 290.304,215.858 287,221.5L277.224,236.792C275.844,238.888 275.393,239.996 273.452,240.014L238.548,240.014C236.607,239.996 236.156,238.888 234.776,236.792L225,221.5C221.696,215.858 222.324,212.998 227,213L285,213ZM285,291.029L227,291.029C222.324,291.03 221.696,288.17 225,282.529L234.776,267.236C236.156,265.14 236.607,264.033 238.548,264.014L273.452,264.014C275.393,264.033 275.844,265.14 277.224,267.236L287,282.529C290.304,288.17 289.676,291.03 285,291.029Z" style="fill:rgb(51,13,107);"/>
            <path d="M285,213C289.676,212.998 290.304,215.858 287,221.5L277.224,236.792C275.844,238.888 275.393,239.996 273.452,240.014L238.548,240.014C236.607,239.996 236.156,238.888 234.776,236.792L225,221.5C221.696,215.858 222.324,212.998 227,213L285,213ZM285,213.05L227,213.05C225.152,213.049 223.942,213.494 223.367,214.393C223.023,214.931 222.907,215.629 223.015,216.486C223.18,217.787 223.858,219.451 225.043,221.474L234.818,236.765C235.369,237.602 235.772,238.281 236.18,238.795C236.784,239.556 237.402,239.953 238.549,239.964L273.451,239.964C274.598,239.953 275.216,239.556 275.82,238.795C276.228,238.281 276.631,237.602 277.182,236.765L286.957,221.474C288.142,219.451 288.82,217.787 288.985,216.486C289.093,215.629 288.977,214.931 288.633,214.393C288.058,213.494 286.848,213.049 285,213.05ZM285,291.029L227,291.029C222.324,291.03 221.696,288.17 225,282.529L234.776,267.236C236.156,265.14 236.607,264.033 238.548,264.014L273.452,264.014C275.393,264.033 275.844,265.14 277.224,267.236L287,282.529C290.304,288.17 289.676,291.03 285,291.029ZM285,290.979C286.848,290.979 288.058,290.534 288.633,289.635C288.977,289.098 289.093,288.4 288.985,287.543C288.82,286.241 288.142,284.578 286.957,282.555L277.182,267.263C276.631,266.427 276.228,265.748 275.82,265.233C275.216,264.472 274.598,264.075 273.451,264.064L238.549,264.064C237.402,264.075 236.784,264.472 236.18,265.233C235.772,265.748 235.369,266.427 234.818,267.263L225.043,282.555C223.858,284.578 223.18,286.241 223.015,287.543C222.907,288.4 223.023,289.098 223.367,289.635C223.942,290.534 225.152,290.979 227,290.979L285,290.979Z" style="fill:rgb(51,13,107);fill-opacity:0;"/>
        </g>
    </g>
</svg>
